<svg width="45" height="45" viewBox="0 0 45 45" fill="none" xmlns="http://www.w3.org/2000/svg">
<circle cx="22.5" cy="22.5" r="22.5" fill="#FF6868"/>
<path d="M30.46 32.56C30.62 32.72 30.69 32.92 30.67 33.16C30.67 33.4 30.58 33.6 30.4 33.76C30.24 33.92 30.04 34 29.8 34C29.54 34 29.34 33.9 29.2 33.7L23.02 27.07H15.79V33.16C15.79 33.38 15.7 33.58 15.52 33.76C15.34 33.92 15.14 34 14.92 34C14.68 34 14.47 33.92 14.29 33.76C14.13 33.58 14.05 33.38 14.05 33.16V12.37C14.05 12.13 14.13 11.93 14.29 11.77C14.47 11.59 14.68 11.5 14.92 11.5H22.24C22.3 11.5 22.52 11.52 22.9 11.56C23.28 11.58 23.75 11.66 24.31 11.8C24.87 11.94 25.47 12.17 26.11 12.49C26.75 12.79 27.36 13.22 27.94 13.78C29.32 15.14 30.01 16.97 30.01 19.27C30.01 20.77 29.77 22.06 29.29 23.14C28.89 24.04 28.3 24.83 27.52 25.51C27.32 25.67 27.1 25.74 26.86 25.72C26.64 25.68 26.45 25.58 26.29 25.42C26.13 25.24 26.07 25.03 26.11 24.79C26.15 24.55 26.25 24.35 26.41 24.19C27.65 23.15 28.27 21.51 28.27 19.27C28.27 17.43 27.76 16 26.74 14.98C26.28 14.52 25.78 14.18 25.24 13.96C24.72 13.72 24.26 13.55 23.86 13.45C23.38 13.37 22.99 13.31 22.69 13.27C22.51 13.25 22.36 13.24 22.24 13.24H15.79V25.33H23.44C23.66 25.33 23.86 25.42 24.04 25.6L30.46 32.56ZM34.7423 33.1C34.7423 33.36 34.6523 33.58 34.4723 33.76C34.2923 33.92 34.0823 34 33.8423 34C33.5823 34 33.3623 33.92 33.1823 33.76C33.0223 33.58 32.9423 33.36 32.9423 33.1C32.9423 32.84 33.0223 32.63 33.1823 32.47C33.3623 32.29 33.5823 32.2 33.8423 32.2C34.0823 32.2 34.2923 32.29 34.4723 32.47C34.6523 32.63 34.7423 32.84 34.7423 33.1Z" fill="#262626"/>
</svg>
